
<svg xmlns="http://www.w3.org/2000/svg" width="1024" height="1024" viewBox="0 0 1024 1024">
  <defs>
    <linearGradient id="bg" x1="0" y1="0" x2="0" y2="1">
      <stop offset="0"   stop-color="#1e293b"/>
      <stop offset="1"   stop-color="#0b1220"/>
    </linearGradient>
    <radialGradient id="glow" cx="50%" cy="50%" r="50%">
      <stop offset="0"   stop-color="#ffffff" stop-opacity="0.10"/>
      <stop offset="1"   stop-color="#ffffff" stop-opacity="0"/>
    </radialGradient>
  </defs>

  <!-- Full-bleed background: iOS/Android will round or mask the corners -->
  <rect width="1024" height="1024" fill="url(#bg)"/>
  <circle cx="512" cy="512" r="420" fill="url(#glow)"/>

  <!-- CPU chip group, centred, ~55% of canvas -->
  <g transform="translate(512 512)">
    <g transform="translate(-220 -220)" fill="none" stroke="#ffffff" stroke-width="38" stroke-linecap="round" stroke-linejoin="round">
      <!-- Chip body -->
      <rect x="40" y="40" width="360" height="360" rx="56" ry="56"/>
      <!-- Inner chip frame -->
      <rect x="110" y="110" width="220" height="220" rx="28" ry="28"/>

      <!-- Pins: top -->
      <line x1="130" y1="0"  x2="130" y2="40"/>
      <line x1="190" y1="0"  x2="190" y2="40"/>
      <line x1="250" y1="0"  x2="250" y2="40"/>
      <line x1="310" y1="0"  x2="310" y2="40"/>
      <!-- Pins: bottom -->
      <line x1="130" y1="400" x2="130" y2="440"/>
      <line x1="190" y1="400" x2="190" y2="440"/>
      <line x1="250" y1="400" x2="250" y2="440"/>
      <line x1="310" y1="400" x2="310" y2="440"/>
      <!-- Pins: left -->
      <line x1="0"   y1="130" x2="40"  y2="130"/>
      <line x1="0"   y1="190" x2="40"  y2="190"/>
      <line x1="0"   y1="250" x2="40"  y2="250"/>
      <line x1="0"   y1="310" x2="40"  y2="310"/>
      <!-- Pins: right -->
      <line x1="400" y1="130" x2="440" y2="130"/>
      <line x1="400" y1="190" x2="440" y2="190"/>
      <line x1="400" y1="250" x2="440" y2="250"/>
      <line x1="400" y1="310" x2="440" y2="310"/>
    </g>

    <!-- Heart inside the chip -->
    <g transform="translate(0 0) scale(4.2)" fill="#ffffff">
      <path d="M0 14 C -14 2, -20 -6, -10 -12 C -4 -15, 0 -10, 0 -6 C 0 -10, 4 -15, 10 -12 C 20 -6, 14 2, 0 14 Z"/>
    </g>
  </g>
</svg>
